PathFileType	4	(X/Y/Z)	D:\TRACE\v60_Jaco2_6-2-23\JustBodyDRS_Motion1_1-platform.trc
DataRate	CameraRate	NumFrames	NumMarkers	Units	OrigDataRate	OrigDataStartFrame	OrigNumFrames
100.00	100.00	      36	5	mm	100.00	1876	      7500
Frame#	Time	Left_Front			Right_Front			Left_Aft			Right_Aft			Post			
		X1	Y1	Z1	X2	Y2	Z2	X3	Y3	Z3	X4	Y4	Z4	X5	Y5	Z5	

1876	18.750	-848.77466	1.69330	-640.82721	721.19708	2.83146	-645.49225	-757.00037	13.33021	494.80579	685.33649	12.19771	504.46063	-61.85260	1296.99048	-977.28430	
1877	18.760	-849.19769	2.07669	-640.49030	721.00867	2.99791	-645.53784	-756.87622	12.62395	494.82672	685.02924	11.54174	504.51456	-62.67390	1297.64258	-976.48956	
1878	18.770	-849.44781	2.47742	-640.17157	720.68909	3.52668	-645.41742	-757.82428	12.66403	495.17981	684.54181	11.06413	504.62274	-63.26587	1298.43567	-976.07355	
1879	18.780	-849.63916	2.79246	-639.89099	720.36200	3.94880	-645.36169	-758.18884	12.30370	495.35788	684.35333	10.73886	504.71820	-63.41856	1299.16858	-975.19464	
1880	18.790	-849.92261	3.22365	-639.64496	720.34924	4.29548	-645.13104	-758.45087	12.19265	495.55911	684.33868	10.49232	504.89722	-63.38708	1299.87646	-974.23572	
1881	18.800	-850.13239	3.76085	-639.87933	719.98541	4.85201	-645.08936	-758.75909	12.12149	495.73535	684.03717	10.22445	504.81061	-63.60217	1300.71826	-973.00214	
1882	18.810	-850.27148	4.12618	-639.54370	719.78540	5.58536	-644.89722	-758.93378	11.78435	495.95718	683.70001	9.95292	504.88773	-63.78458	1301.25537	-971.98846	
1883	18.820	-850.63892	4.58569	-639.46466	719.62305	5.85083	-644.75305	-759.12958	11.32091	496.12772	683.15790	9.28014	504.94666	-64.00044	1301.72144	-970.72394	
1884	18.830	-850.81311	5.07020	-639.21991	719.55341	6.22025	-644.67621	-759.17969	10.93224	496.13931	682.89185	8.86842	505.51428	-63.92351	1302.23608	-969.31342	
1885	18.840	-850.71240	5.63187	-639.14081	719.46008	6.61269	-644.56769	-759.31104	10.82262	496.15915	682.85663	8.61228	505.61246	-64.40237	1303.05273	-968.09216	
1886	18.850	-850.68500	6.11478	-639.16315	719.28760	6.93868	-644.54102	-759.39612	10.78069	496.19312	681.74512	8.04748	505.73962	-64.18288	1303.78418	-967.11670	
1887	18.860	-850.74445	6.42709	-638.98535	719.21753	7.33702	-644.37439	-759.47546	10.51038	496.28946	683.06470	8.33203	505.79745	-64.65104	1304.34119	-966.09882	
1888	18.870	-850.89844	6.77072	-638.90735	719.23975	7.67063	-644.29224	-759.53027	10.19889	496.35031	682.56561	7.70696	505.78198	-64.55497	1304.97217	-965.37421	
1889	18.880	-850.92090	7.01909	-638.78595	719.23260	8.14149	-644.16278	-759.68347	9.89033	496.33878	682.91949	7.51429	506.13348	-64.29855	1305.48108	-964.75818	
1890	18.890	-850.94873	7.35627	-638.66650	719.25330	8.65477	-644.08948	-758.79156	8.59015	496.15497	683.00726	7.37016	505.66196	-64.59589	1306.14673	-964.16882	
1891	18.900	-850.97260	7.95600	-638.59308	719.19104	9.14154	-644.12048	-758.78418	8.42164	496.25894	682.65247	6.65456	505.97476	-64.65034	1306.76025	-963.85187	
1892	18.910	-850.94635	8.75755	-638.71735	719.26251	9.51662	-644.02563	-758.70435	8.11148	496.42795	682.69055	6.48195	506.03458	-64.46241	1307.55249	-963.24750	
1893	18.920	-850.84637	9.13990	-638.61328	719.18036	9.91160	-643.88275	-758.71472	7.73078	496.60794	682.18610	5.93850	505.71945	-64.12048	1308.18335	-962.25244	
1894	18.930	-850.84027	9.36575	-638.52332	719.12781	10.38603	-643.78021	-758.79272	7.37723	496.69403	681.95465	5.41047	505.69827	-64.34524	1308.72839	-961.38599	
1895	18.940	-850.91199	9.80428	-638.28516	719.23218	10.73302	-643.68433	-758.85992	7.16307	496.85931	681.62592	4.77287	505.40799	-64.30467	1309.27039	-960.52612	
1896	18.950	-850.95074	10.11875	-638.16199	719.35657	11.07152	-643.47284	-758.25110	6.04458	497.96487	681.69104	4.35860	505.57693	-64.30933	1309.93872	-959.00177	
1897	18.960	-850.78613	10.82793	-638.21509	719.39844	11.59084	-643.39539	-758.23413	5.91799	497.98581	681.84863	4.22133	505.59030	-63.86736	1310.52905	-958.00122	
1898	18.970	-850.53241	11.45988	-638.06482	719.46283	12.15790	-643.38696	-757.79114	5.44874	497.74945	681.97266	3.98952	505.53595	-64.30903	1311.26953	-956.74121	
1899	18.980	-850.24695	11.73014	-637.74969	719.76599	12.71146	-643.34393	-757.65790	5.11204	497.82440	685.02948	5.62543	507.90857	-63.81894	1312.09265	-955.14191	
1900	18.990	-850.13715	12.01141	-637.59625	720.07037	13.17019	-643.21204	-757.63422	5.07327	497.72360	685.37097	5.34655	507.98096	-63.67278	1312.71631	-953.74561	
1901	19.000	-849.78491	12.12665	-637.46088	720.30927	13.24840	-643.10638	-757.63483	5.20239	497.35419	685.68292	5.05212	508.15143	-62.89684	1313.04822	-952.73053	
1902	19.010	-849.50177	12.89934	-637.52496	720.59998	13.29553	-642.96582	-757.44183	5.05373	497.51733	686.13245	4.96247	508.38367	-63.22696	1313.66614	-951.69110	
1903	19.020	-849.34674	13.26839	-637.39227	720.75873	13.67665	-642.91772	-757.25085	4.82290	497.62686	686.31775	4.66325	508.38806	-62.72463	1314.12866	-951.19714	
1904	19.030	-849.09637	13.61384	-637.39996	720.89655	14.47219	-642.92493	-757.06238	4.62444	497.69019	686.33667	4.11947	508.42416	-62.42112	1314.57813	-950.88727	
1905	19.040	-848.84100	14.00795	-637.37891	721.07471	14.70623	-642.78729	-756.80511	4.37136	497.76889	686.35376	3.90424	508.50793	-62.09117	1315.14880	-950.86810	
1906	19.050	-848.40564	14.55407	-637.22614	721.34058	15.13897	-642.64154	-756.45251	4.24600	497.77646	686.59900	3.73766	508.38745	-61.83678	1315.77844	-950.56506	
1907	19.060	-848.29529	14.95681	-637.26227	721.86212	15.44294	-642.40454	-756.17181	4.13187	497.84125	686.82629	3.11974	508.25931	-61.63493	1316.50610	-950.32202	
1908	19.070	-847.69275	15.07029	-637.32654	722.35358	15.74129	-642.39520	-755.76129	3.73986	498.06320	687.05365	2.85785	508.16907	-61.28398	1317.06396	-949.71344	
1909	19.080	-847.40564	15.39596	-637.21301	722.80353	15.95436	-642.34503	-755.44788	3.46840	498.20416	687.45422	2.65866	508.19492	-60.86287	1317.47021	-948.81104	
1910	19.090	-847.02081	15.71381	-636.97375	723.16498	16.36307	-642.28125	-755.00818	3.10037	498.37546	687.85284	2.21131	508.22147	-60.43941	1318.21655	-947.82660	
1911	19.100	-846.50360	16.37170	-636.83966	723.49561	17.21868	-642.23785	-754.64240	2.88972	498.48111	688.12640	1.75009	508.15466	-59.87324	1318.64917	-946.77856	
